<svg width="198" height="65" viewBox="0 0 198 65" fill="none" xmlns="http://www.w3.org/2000/svg">
<g clip-path="url(#clip0_2_5243)">
<path d="M91.263 6.50014C91.263 7.32741 91.263 8.62741 89.7179 8.62741C88.1729 8.62741 88.1847 7.32741 88.1847 6.50014V0.236504H84.7644V6.85469C84.7644 10.7547 87.4771 11.582 89.7179 11.582C91.9588 11.582 94.6715 10.7547 94.6715 6.85469V0.236504H91.2512C91.263 0.945595 91.263 6.50014 91.263 6.50014ZM71.8026 4.60923L70.8591 4.37287H70.7648C70.4109 4.25469 69.7033 4.1365 69.7033 3.42741C69.7033 2.71832 70.175 2.36378 71.0006 2.36378C71.7969 2.39846 72.5698 2.64305 73.2415 3.07287C73.4774 2.48196 73.9492 1.30014 74.0671 0.827413C73.0952 0.247993 71.9775 -0.0391742 70.8473 0.000140168C68.6064 0.000140168 66.2476 1.41832 66.2476 4.01832C66.2871 4.72635 66.5856 5.39497 67.086 5.8964C67.5864 6.39784 68.2537 6.69692 68.9603 6.7365L69.9038 6.97287C70.2576 7.09105 71.0832 7.20923 71.0832 8.0365C71.0832 8.86378 70.3755 9.10014 69.6679 9.10014C68.7052 9.06174 67.7867 8.68522 67.0732 8.0365C66.7194 8.7456 66.2594 10.1638 66.0117 10.6365C67.2223 11.2391 68.5522 11.5621 69.9038 11.582C72.1565 11.582 74.5153 10.4001 74.5153 7.68196C74.5153 6.02741 73.6779 5.08196 71.8026 4.60923ZM150.234 8.0365C150.097 7.78757 149.892 7.58265 149.644 7.4456H149.526C149.481 7.3989 149.448 7.34289 149.427 7.28158C149.407 7.22028 149.4 7.15521 149.408 7.09105C149.408 6.97287 149.526 6.7365 149.644 6.7365C149.955 6.6933 150.255 6.58822 150.525 6.42742C150.795 6.26663 151.03 6.05336 151.217 5.80015C151.404 5.54693 151.538 5.25888 151.613 4.95289C151.687 4.64691 151.699 4.32917 151.649 4.01832C151.649 0.709231 148.936 0.236504 147.285 0.236504H142.567V11.3456H145.87V7.91832C145.864 7.87039 145.869 7.82179 145.885 7.77618C145.901 7.73057 145.927 7.68914 145.961 7.655C145.995 7.62087 146.036 7.59493 146.082 7.57912C146.127 7.56332 146.176 7.55808 146.224 7.56378H146.342C146.46 7.56378 146.577 7.68196 146.695 7.80014C146.813 7.91832 148.229 10.991 148.465 11.4638H152.357C151.755 10.4001 150.234 8.0365 150.234 8.0365ZM146.577 5.4365H146.342C146.25 5.4309 146.163 5.39175 146.098 5.32643C146.032 5.26112 145.993 5.17416 145.988 5.08196V3.07287C145.982 3.02494 145.987 2.97633 146.003 2.93072C146.019 2.88511 146.045 2.84368 146.079 2.80955C146.113 2.77542 146.154 2.74947 146.2 2.73367C146.245 2.71787 146.294 2.71262 146.342 2.71832H146.695C147.167 2.71832 148.465 2.71832 148.465 4.1365C148.465 5.55469 147.037 5.4365 146.577 5.4365ZM128.297 8.50923V7.32741C128.291 7.27948 128.296 7.23088 128.312 7.18527C128.328 7.13966 128.354 7.09823 128.388 7.06409C128.422 7.02996 128.463 7.00402 128.509 6.98822C128.554 6.97241 128.603 6.96717 128.65 6.97287H131.481V4.60923H128.65C128.558 4.60363 128.472 4.56448 128.406 4.49916C128.341 4.43385 128.302 4.34689 128.297 4.25469V3.07287C128.291 3.02494 128.296 2.97633 128.312 2.93072C128.328 2.88511 128.354 2.84368 128.388 2.80955C128.422 2.77542 128.463 2.74947 128.509 2.73367C128.554 2.71787 128.603 2.71262 128.65 2.71832H131.835V0.236504H124.876V11.3456H131.953V8.86378H128.639C128.591 8.86994 128.543 8.86491 128.498 8.84908C128.453 8.83325 128.412 8.80707 128.379 8.77262C128.345 8.73817 128.321 8.69641 128.306 8.65068C128.292 8.60495 128.289 8.55651 128.297 8.50923ZM110.476 0.236504H105.522V11.3456H108.836V8.15469C108.831 8.10675 108.836 8.05815 108.852 8.01254C108.867 7.96693 108.893 7.9255 108.927 7.89137C108.961 7.85723 109.003 7.83129 109.048 7.81549C109.094 7.79969 109.142 7.79444 109.19 7.80014H111.313C111.782 7.83601 112.252 7.7679 112.692 7.60068C113.131 7.43346 113.528 7.17124 113.855 6.83268C114.181 6.49413 114.429 6.08758 114.581 5.64198C114.733 5.19638 114.785 4.72271 114.733 4.25469C114.733 1.65469 113.224 0.236504 110.476 0.236504ZM109.544 5.55469H109.06C108.969 5.5467 108.884 5.50678 108.819 5.44194C108.754 5.3771 108.714 5.29149 108.706 5.20014V3.07287C108.701 3.02494 108.706 2.97633 108.722 2.93072C108.738 2.88511 108.763 2.84368 108.798 2.80955C108.832 2.77542 108.873 2.74947 108.918 2.73367C108.964 2.71787 109.012 2.71262 109.06 2.71832H109.426C109.898 2.71832 111.313 2.71832 111.313 4.1365C111.537 5.08196 110.865 5.55469 109.544 5.55469Z" fill="#444444"/>
<path d="M86.1798 14.3H79.5751C79.2623 14.3 78.9623 14.4245 78.7411 14.6461C78.52 14.8678 78.3957 15.1684 78.3957 15.4818V41.6C78.3957 41.9134 78.2714 42.214 78.0503 42.4357C77.8291 42.6573 77.5291 42.7818 77.2163 42.7818H75.2113C74.8985 42.7818 74.5985 42.6573 74.3773 42.4357C74.1561 42.214 74.0319 41.9134 74.0319 41.6V15.4818C74.0319 15.1684 73.9076 14.8678 73.6864 14.6461C73.4652 14.4245 73.1653 14.3 72.8525 14.3H66.2595C65.9467 14.3 65.6468 14.4245 65.4256 14.6461C65.2044 14.8678 65.0801 15.1684 65.0801 15.4818V46.0909C65.0863 47.6855 65.7204 49.2132 66.8446 50.3418C67.9687 51.4705 69.492 52.1088 71.0833 52.1182H74.8575C75.6331 52.1199 76.4004 51.9589 77.1101 51.6455C77.5819 51.4438 78.0165 51.1642 78.3957 50.8182V51.0545C78.3957 51.1797 78.4205 51.3036 78.4686 51.4191C78.5168 51.5346 78.5873 51.6393 78.6762 51.7273C78.7651 51.8152 78.8705 51.8846 78.9863 51.9314C79.1022 51.9783 79.2261 52.0016 79.351 52H86.1916C86.5044 52 86.8044 51.8755 87.0256 51.6539C87.2468 51.4322 87.371 51.1316 87.371 50.8182V15.4818C87.371 15.3256 87.3402 15.171 87.2802 15.0268C87.2201 14.8826 87.1322 14.7518 87.0214 14.6419C86.9107 14.532 86.7793 14.4452 86.6348 14.3865C86.4903 14.3279 86.3357 14.2984 86.1798 14.3ZM106.702 14.3H96.3228C95.5211 14.2917 94.7271 14.4563 93.9945 14.7825C93.2619 15.1088 92.6079 15.5891 92.0769 16.1909C91.0694 17.3391 90.4864 18.7995 90.4257 20.3273V50.8182C90.4257 51.1316 90.55 51.4322 90.7712 51.6539C90.9923 51.8755 91.2923 52 91.6051 52H98.2099C98.5227 52 98.8226 51.8755 99.0438 51.6539C99.265 51.4322 99.3893 51.1316 99.3893 50.8182V39C99.3893 38.6866 99.5135 38.386 99.7347 38.1643C99.9559 37.9427 100.256 37.8182 100.569 37.8182H105.64C105.953 37.8182 106.253 37.6937 106.474 37.472C106.695 37.2504 106.82 36.9498 106.82 36.6364V29.9C106.82 29.5866 106.695 29.286 106.474 29.0643C106.253 28.8427 105.953 28.7182 105.64 28.7182H100.569C100.256 28.7182 99.9559 28.5937 99.7347 28.372C99.5135 28.1504 99.3893 27.8498 99.3893 27.5364V24.9364C99.3893 24.6229 99.5135 24.3223 99.7347 24.1007C99.9559 23.8791 100.256 23.7545 100.569 23.7545H106.584C106.896 23.7545 107.196 23.63 107.418 23.4084C107.639 23.1868 107.763 22.8862 107.763 22.5727V15.8364C107.817 15.6644 107.832 15.4822 107.805 15.3039C107.778 15.1255 107.711 14.9557 107.608 14.8074C107.506 14.6591 107.371 14.5363 107.214 14.4483C107.057 14.3604 106.881 14.3096 106.702 14.3ZM126.752 14.3H116.373C115.571 14.2917 114.777 14.4563 114.045 14.7825C113.312 15.1088 112.658 15.5891 112.127 16.1909C111.119 17.3391 110.536 18.7995 110.476 20.3273V50.8182C110.476 51.1316 110.6 51.4322 110.821 51.6539C111.042 51.8755 111.342 52 111.655 52H118.26C118.573 52 118.873 51.8755 119.094 51.6539C119.315 51.4322 119.439 51.1316 119.439 50.8182V39C119.439 38.6866 119.564 38.386 119.785 38.1643C120.006 37.9427 120.306 37.8182 120.619 37.8182H125.69C126.003 37.8182 126.303 37.6937 126.524 37.472C126.745 37.2504 126.87 36.9498 126.87 36.6364V29.9C126.87 29.5866 126.745 29.286 126.524 29.0643C126.303 28.8427 126.003 28.7182 125.69 28.7182H120.619C120.306 28.7182 120.006 28.5937 119.785 28.372C119.564 28.1504 119.439 27.8498 119.439 27.5364V24.9364C119.439 24.6229 119.564 24.3223 119.785 24.1007C120.006 23.8791 120.306 23.7545 120.619 23.7545H126.634C126.947 23.7545 127.247 23.63 127.468 23.4084C127.689 23.1868 127.813 22.8862 127.813 22.5727V15.8364C127.867 15.6644 127.882 15.4822 127.855 15.3039C127.828 15.1255 127.761 14.9557 127.658 14.8074C127.556 14.6591 127.421 14.5363 127.264 14.4483C127.107 14.3604 126.931 14.3096 126.752 14.3ZM172.194 42.9H168.302C167.99 42.9 167.69 42.7755 167.468 42.5539C167.247 42.3322 167.123 42.0316 167.123 41.7182V24.7C167.123 24.3866 167.247 24.086 167.468 23.8643C167.69 23.6427 167.99 23.5182 168.302 23.5182H172.077C172.389 23.5182 172.689 23.3937 172.911 23.172C173.132 22.9504 173.256 22.6498 173.256 22.3364V15.6C173.256 15.2866 173.132 14.986 172.911 14.7643C172.689 14.5427 172.389 14.4182 172.077 14.4182H168.302C167.99 14.4182 167.69 14.2937 167.468 14.072C167.247 13.8504 167.123 13.5498 167.123 13.2364V1.18182C167.123 0.86838 166.999 0.56778 166.778 0.346147C166.556 0.124513 166.256 0 165.944 0L159.221 0C158.908 0 158.608 0.124513 158.387 0.346147C158.166 0.56778 158.042 0.86838 158.042 1.18182V13C158.042 13.3134 157.917 13.614 157.696 13.8357C157.475 14.0573 157.175 14.1818 156.862 14.1818H155.683C155.37 14.1818 155.07 14.3063 154.849 14.528C154.628 14.7496 154.503 15.0502 154.503 15.3636V22.1C154.503 22.4134 154.628 22.714 154.849 22.9357C155.07 23.1573 155.37 23.2818 155.683 23.2818H156.862C157.175 23.2818 157.475 23.4063 157.696 23.628C157.917 23.8496 158.042 24.1502 158.042 24.4636V45.7364C158.051 47.2197 158.6 48.6486 159.587 49.7545C160.136 50.3704 160.806 50.8665 161.554 51.2121C162.303 51.5577 163.115 51.7454 163.939 51.7636H172.194C172.507 51.7636 172.807 51.6391 173.028 51.4175C173.25 51.1959 173.374 50.8953 173.374 50.5818V43.8455C173.341 43.5639 173.199 43.3067 172.978 43.1297C172.757 42.9526 172.476 42.8701 172.194 42.9ZM60.9522 0H55.1613C54.8145 0.0057815 54.4763 0.108398 54.1846 0.296305C53.8929 0.484212 53.6593 0.749954 53.5101 1.06364L39.593 31.2C39.3571 31.7909 39.1212 31.7909 39.1212 31.0818V1.18182C39.1212 0.86838 38.997 0.56778 38.7758 0.346147C38.5546 0.124513 38.2546 0 37.9418 0L30.9833 0C30.6362 0.00441233 30.2974 0.106472 30.0054 0.294537C29.7135 0.482602 29.4802 0.749101 29.3321 1.06364L0.0944158 63.9364C-0.153261 64.5273 0.0944158 65 0.802064 65H8.45646C8.80351 64.9956 9.14233 64.8935 9.43428 64.7055C9.72623 64.5174 9.95955 64.2509 10.1076 63.9364L29.9218 19.9727C30.1577 19.3818 30.3936 19.3818 30.3936 20.0909V50.8182C30.3936 51.1316 30.5178 51.4322 30.739 51.6539C30.9602 51.8755 31.2602 52 31.573 52H37.8239C38.1709 51.9956 38.5097 51.8935 38.8017 51.7055C39.0936 51.5174 39.327 51.2509 39.475 50.9364L53.5219 20.2091C53.7578 19.6182 53.9936 19.6182 53.9936 20.3273V50.8182C53.9936 51.1316 54.1179 51.4322 54.3391 51.6539C54.5603 51.8755 54.8602 52 55.173 52H60.9522C61.265 52 61.565 51.8755 61.7861 51.6539C62.0073 51.4322 62.1316 51.1316 62.1316 50.8182V1.18182C62.1316 0.86838 62.0073 0.56778 61.7861 0.346147C61.565 0.124513 61.265 0 60.9522 0V0ZM145.988 14.3H131.835C131.522 14.3 131.222 14.4245 131.001 14.6461C130.78 14.8678 130.656 15.1684 130.656 15.4818V22.2182C130.654 22.5434 130.775 22.8574 130.993 23.098C131.211 23.3387 131.512 23.4886 131.835 23.5182H141.624C141.937 23.5182 142.237 23.6427 142.458 23.8643C142.679 24.086 142.803 24.3866 142.803 24.7V27.3C142.82 27.4648 142.802 27.6313 142.75 27.7886C142.698 27.9459 142.614 28.0906 142.503 28.2132C142.391 28.3358 142.256 28.4335 142.104 28.5002C141.953 28.5668 141.789 28.6008 141.624 28.6H133.604C132.513 28.6123 131.47 29.052 130.699 29.8251C129.927 30.5982 129.488 31.6431 129.476 32.7364V46.0909C129.47 46.8842 129.621 47.6708 129.921 48.4049C130.221 49.139 130.664 49.8059 131.224 50.3669C131.784 50.9278 132.449 51.3715 133.182 51.6722C133.914 51.9729 134.699 52.1245 135.491 52.1182H140.433C140.933 52.1162 141.42 51.9548 141.823 51.6574C142.226 51.36 142.524 50.9419 142.674 50.4636V51.1727C142.674 51.2979 142.699 51.4218 142.747 51.5373C142.795 51.6528 142.865 51.7575 142.954 51.8455C143.043 51.9334 143.149 52.0028 143.264 52.0496C143.38 52.0964 143.504 52.1197 143.629 52.1182H150.588C150.911 52.0886 151.211 51.9387 151.43 51.698C151.648 51.4574 151.768 51.1434 151.767 50.8182V20.4455C151.81 19.6569 151.693 18.8677 151.422 18.126C151.152 17.3842 150.734 16.7054 150.193 16.1306C149.652 15.5558 149.001 15.0971 148.278 14.7824C147.555 14.4678 146.776 14.3036 145.988 14.3ZM142.792 41.9545C142.793 42.0791 142.77 42.2028 142.723 42.3182C142.676 42.4336 142.607 42.5385 142.519 42.6266C142.431 42.7147 142.326 42.7843 142.211 42.8313C142.096 42.8782 141.973 42.9016 141.848 42.9H139.489C139.245 42.8834 139.014 42.7785 138.841 42.6046C138.667 42.4308 138.562 42.1998 138.546 41.9545V38.7636C138.544 38.639 138.568 38.5154 138.614 38.4C138.661 38.2845 138.731 38.1797 138.819 38.0916C138.907 38.0034 139.011 37.9339 139.126 37.8869C139.242 37.84 139.365 37.8166 139.489 37.8182H141.848C142.093 37.8348 142.323 37.9397 142.497 38.1135C142.67 38.2874 142.775 38.5183 142.792 38.7636V41.9545ZM192.091 14.3H181.83C180.256 14.3309 178.756 14.9796 177.653 16.1066C176.55 17.2336 175.933 18.749 175.933 20.3273V46.0909C175.954 47.6628 176.578 49.1664 177.676 50.2889C178.774 51.4115 180.262 52.0666 181.83 52.1182H192.091C193.666 52.0872 195.166 51.4386 196.268 50.3116C197.371 49.1846 197.989 47.6692 197.988 46.0909V20.5636C198.037 19.7583 197.92 18.9517 197.645 18.1933C197.371 17.4349 196.944 16.741 196.391 16.1541C195.839 15.5673 195.172 15.1001 194.433 14.7812C193.693 14.4623 192.896 14.2985 192.091 14.3ZM189.037 41.8364C189.038 41.962 189.014 42.0866 188.967 42.2028C188.919 42.3191 188.849 42.4245 188.76 42.5127C188.67 42.601 188.564 42.6704 188.448 42.7166C188.331 42.7628 188.207 42.785 188.081 42.7818H185.958C185.714 42.7628 185.485 42.6571 185.312 42.4838C185.139 42.3104 185.034 42.0808 185.015 41.8364V24.4636C185.013 24.339 185.036 24.2154 185.083 24.1C185.13 23.9845 185.2 23.8797 185.288 23.7916C185.375 23.7034 185.48 23.6339 185.595 23.5869C185.711 23.54 185.834 23.5166 185.958 23.5182H188.081C188.327 23.5345 188.559 23.639 188.735 23.8126C188.91 23.9862 189.017 24.2173 189.037 24.4636V41.8364Z" fill="#A6A6A6"/>
</g>
<defs>
<clipPath id="clip0_2_5243">
<rect width="198" height="65" fill="white"/>
</clipPath>
</defs>
</svg>
