<svg width="104" height="66" viewBox="0 0 104 66" fill="none" xmlns="http://www.w3.org/2000/svg">
<g clip-path="url(#clip0_203_71)">
<path d="M4.53733 37.606H0V64.7446H4.53733V37.606Z" fill="#BBBDBF"/>
<path d="M32.2156 64.7446H26.8955L22.0294 54.2199C21.4127 54.2934 20.7926 54.3345 20.1717 54.3432H17.6565V64.7446H13.1191V37.606H22.8122C28.2157 37.606 31.3493 40.6703 31.3493 45.3127C31.3493 48.626 29.7395 51.5698 26.3189 53.1033L32.2156 64.7446ZM17.6565 50.4085H20.9544C24.0854 50.4085 26.6059 48.7938 26.6059 45.6036C26.6059 43.0321 24.6255 41.5406 22.0294 41.5406H17.6565V50.4085Z" fill="#BBBDBF"/>
<path d="M38.6494 37.606H54.6514V41.6245H43.1841V48.917H53.9104V52.8542H43.1841V60.6842H54.6514V64.7446H38.6494V37.606Z" fill="#BBBDBF"/>
<path d="M82.16 64.7446L71.6529 51.2133L82.0348 37.606H76.2633L66.6929 50.4688V37.606H62.1582V64.7446H66.6929V51.9656L76.1381 64.7446H82.16Z" fill="#BBBDBF"/>
<path d="M102.853 40.2745C102.934 41.2155 101.972 42.4082 101.306 42.8512C99.7476 41.8799 97.9558 41.3517 96.1218 41.323C92.863 41.323 91.7097 42.7333 91.7097 44.5971C91.7097 49.8187 103.545 48.4924 103.545 56.9855C103.545 62.1678 99.8242 65.0539 93.9901 65.1457C91.3131 65.1876 88.5787 64.6345 86.7236 63.4182V58.8859C88.0282 59.9345 91.1305 60.9437 93.9797 60.9437C96.9072 60.9437 98.637 59.6173 98.637 57.4232C98.6266 52.4794 86.8854 53.7638 86.8854 44.9404C86.8854 40.2561 90.0607 37.1079 96.1688 37.1079C99.5476 37.1079 102.692 38.374 102.856 40.2535" fill="#BBBDBF"/>
<path d="M51.5335 21.6078L50.9621 21.1176C50.7325 20.921 45.2559 16.2236 45.2559 10.9495C45.2559 5.1118 50.7638 0.770875 50.996 0.590003L51.5335 0.167969L52.0814 0.571654C52.3189 0.747283 58.0329 4.95976 58.0329 10.9495C58.0329 16.3468 52.358 20.9446 52.1179 21.1386L51.5335 21.6078Z" fill="#BBBDBF"/>
<path d="M61.6254 5.65186C66.9664 7.71746 70.5174 11.2982 70.5174 14.9864C70.5174 20.6773 62.0611 25.2882 51.6193 25.2882C41.1774 25.2882 32.7342 20.6773 32.7342 14.9864C32.7342 11.3795 36.1261 7.8695 41.2844 5.78292C33.4204 7.53397 27.7168 11.1802 27.7168 15.4032C27.7168 21.3274 38.644 26.1271 51.768 26.1271C64.8921 26.1271 75.8218 21.3274 75.8218 15.4032C75.8218 11.0701 69.8208 7.33999 61.6254 5.65186Z" fill="#BBBDBF"/>
</g>
<defs>
<clipPath id="clip0_203_71">
<rect width="103.544" height="64.9907" fill="white" transform="translate(0 0.167969)"/>
</clipPath>
</defs>
</svg>
