<svg width="91" height="57" viewBox="0 0 91 57" fill="none" xmlns="http://www.w3.org/2000/svg">
<g clip-path="url(#clip0_203_501)">
<path d="M3.97946 32.835H0V56.6369H3.97946V32.835Z" fill="#802440"/>
<path d="M28.2544 56.6369H23.5884L19.3206 47.4062C18.7797 47.4706 18.2359 47.5067 17.6913 47.5143H15.4853V56.6369H11.5059V32.835H20.0071C24.7463 32.835 27.4946 35.5225 27.4946 39.5941C27.4946 42.5001 26.0827 45.0819 23.0827 46.4269L28.2544 56.6369ZM15.4853 44.0635H18.3778C21.1238 44.0635 23.3344 42.6472 23.3344 39.8493C23.3344 37.594 21.5975 36.2858 19.3206 36.2858H15.4853V44.0635Z" fill="#802440"/>
<path d="M33.8975 32.835H47.932V36.3594H37.8746V42.7553H47.2821V46.2085H37.8746V53.0757H47.932V56.6369H33.8975V32.835Z" fill="#802440"/>
<path d="M72.0582 56.6369L62.843 44.7693L71.9484 32.835H66.8865L58.4928 44.1163V32.835H54.5156V56.6369H58.4928V45.4291L66.7767 56.6369H72.0582Z" fill="#802440"/>
<path d="M90.2072 35.1752C90.2781 36.0005 89.4337 37.0466 88.8502 37.4351C87.4832 36.5832 85.9117 36.1199 84.3032 36.0948C81.4451 36.0948 80.4336 37.3317 80.4336 38.9663C80.4336 43.546 90.8136 42.3827 90.8136 49.8315C90.8136 54.3767 87.5504 56.908 82.4336 56.9884C80.0858 57.0252 77.6876 56.5401 76.0605 55.4734V51.4983C77.2047 52.418 79.9256 53.3031 82.4245 53.3031C84.992 53.3031 86.5092 52.1398 86.5092 50.2155C86.5 45.8795 76.2024 47.006 76.2024 39.2675C76.2024 35.1591 78.9874 32.3979 84.3444 32.3979C87.3078 32.3979 90.0653 33.5084 90.2095 35.1568" fill="#802440"/>
<path d="M45.1972 18.8038L44.6961 18.3739C44.4947 18.2015 39.6914 14.0816 39.6914 9.45594C39.6914 4.33598 44.5221 0.528778 44.7258 0.370145L45.1972 0L45.6778 0.354052C45.886 0.508087 50.8975 4.20264 50.8975 9.45594C50.8975 14.1897 45.9203 18.2222 45.7098 18.3923L45.1972 18.8038Z" fill="#802440"/>
<path d="M54.0491 4.80957C58.7334 6.62121 61.8478 9.76169 61.8478 12.9964C61.8478 17.9876 54.4312 22.0317 45.2732 22.0317C36.1152 22.0317 28.7101 17.9876 28.7101 12.9964C28.7101 9.83296 31.685 6.75455 36.209 4.92452C29.3119 6.46028 24.3096 9.65824 24.3096 13.362C24.3096 18.5578 33.8932 22.7673 45.4037 22.7673C56.9141 22.7673 66.5001 18.5578 66.5001 13.362C66.5001 9.56168 61.2368 6.29015 54.0491 4.80957Z" fill="#802440"/>
</g>
<defs>
<clipPath id="clip0_203_501">
<rect width="90.8136" height="57" fill="white"/>
</clipPath>
</defs>
</svg>
