<svg width="17" height="17" viewBox="0 0 17 17" fill="none" xmlns="http://www.w3.org/2000/svg">
<path d="M14.6781 16.0781L9.12187 10.5219C8.68437 10.8573 8.18125 11.1271 7.6125 11.3313C7.04375 11.5354 6.43854 11.6375 5.79687 11.6375C4.17812 11.6375 2.80729 11.0722 1.68437 9.94175C0.561458 8.81183 0 7.4375 0 5.81875C0 4.2 0.561458 2.82538 1.68437 1.69488C2.80729 0.564959 4.17812 0 5.79687 0C7.41562 0 8.79025 0.564959 9.92075 1.69488C11.0507 2.82538 11.6156 4.2 11.6156 5.81875C11.6156 6.46042 11.5173 7.06563 11.3207 7.63438C11.1236 8.20312 10.8573 8.69896 10.5219 9.12187L16.0562 14.6781L14.6781 16.0781ZM5.79687 9.625C6.86146 9.625 7.76562 9.25662 8.50937 8.51987C9.25313 7.78371 9.625 6.88333 9.625 5.81875C9.625 4.75417 9.25313 3.8535 8.50937 3.11675C7.76562 2.38058 6.86146 2.0125 5.79687 2.0125C4.73229 2.0125 3.83192 2.38058 3.09575 3.11675C2.359 3.8535 1.99062 4.75417 1.99062 5.81875C1.99062 6.88333 2.359 7.78371 3.09575 8.51987C3.83192 9.25662 4.73229 9.625 5.79687 9.625Z" fill="#BBBDBF"/>
</svg>
