<svg width="14" height="15" viewBox="0 0 14 15" fill="none" xmlns="http://www.w3.org/2000/svg">
<path d="M7 7.5C6.00406 7.5 5.15752 7.15611 4.46036 6.46833C3.76321 5.78111 3.41463 4.95833 3.41463 4C3.41463 3.02778 3.76321 2.20139 4.46036 1.52083C5.15752 0.840278 6.00406 0.5 7 0.5C7.99593 0.5 8.84248 0.840278 9.53963 1.52083C10.2368 2.20139 10.5854 3.02778 10.5854 4C10.5854 4.95833 10.2368 5.78111 9.53963 6.46833C8.84248 7.15611 7.99593 7.5 7 7.5ZM1.94207 14.5C1.40142 14.5 0.942723 14.3161 0.565975 13.9483C0.188658 13.58 0 13.1319 0 12.6042V12C0 11.4861 0.131748 11.0208 0.395244 10.6042C0.658171 10.1875 1.01016 9.86806 1.45122 9.64583C2.34756 9.20139 3.25813 8.87139 4.18293 8.65583C5.10772 8.44083 6.04675 8.33333 7 8.33333C7.95325 8.33333 8.89228 8.44083 9.81707 8.65583C10.7419 8.87139 11.6524 9.19444 12.5488 9.625C12.9898 9.84722 13.3421 10.1703 13.6056 10.5942C13.8685 11.0175 14 11.4861 14 12V12.6042C14 13.1319 13.8116 13.58 13.4349 13.9483C13.0576 14.3161 12.5986 14.5 12.0579 14.5H1.94207Z" fill="white"/>
</svg>
